<svg xmlns="http://www.w3.org/2000/svg" viewBox="0 0 512 512" role="img" aria-labelledby="title desc">
  <title id="title">Piczzle app icon</title>
  <desc id="desc">A colorful rounded puzzle icon for Piczzle.</desc>
  <defs>
    <linearGradient id="bg" x1="64" y1="48" x2="448" y2="464" gradientUnits="userSpaceOnUse">
      <stop offset="0" stop-color="#ff45f3"/>
      <stop offset="0.34" stop-color="#7a45ff"/>
      <stop offset="0.68" stop-color="#20d7ff"/>
      <stop offset="1" stop-color="#20e0ae"/>
    </linearGradient>
    <radialGradient id="shine" cx="30%" cy="24%" r="68%">
      <stop offset="0" stop-color="rgba(255,255,255,.75)"/>
      <stop offset="0.35" stop-color="rgba(255,255,255,.18)"/>
      <stop offset="1" stop-color="rgba(255,255,255,0)"/>
    </radialGradient>
    <filter id="shadow" x="-20%" y="-20%" width="140%" height="140%">
      <feDropShadow dx="0" dy="28" stdDeviation="24" flood-color="rgba(0,0,0,.35)"/>
    </filter>
  </defs>
  <rect width="512" height="512" rx="112" fill="#0b1020"/>
  <rect x="48" y="48" width="416" height="416" rx="104" fill="url(#bg)" filter="url(#shadow)"/>
  <rect x="48" y="48" width="416" height="416" rx="104" fill="url(#shine)" opacity=".75"/>
  <path d="M152 140h92c0 32 21 52 48 52s48-20 48-52h20c29 0 52 23 52 52v76c32 0 52 21 52 48s-20 48-52 48v20c0 29-23 52-52 52h-76c0-32-21-52-48-52s-48 20-48 52h-36c-29 0-52-23-52-52v-76c-32 0-52-21-52-48s20-48 52-48v-72c0-29 23-52 52-52Z" fill="rgba(255,255,255,.28)" stroke="rgba(255,255,255,.82)" stroke-width="18" stroke-linejoin="round"/>
  <path d="M158 318c50-62 126-69 191-21 35 26 72 31 110 6" fill="none" stroke="rgba(10,16,38,.34)" stroke-width="30" stroke-linecap="round"/>
  <circle cx="171" cy="203" r="24" fill="rgba(255,255,255,.90)"/>
</svg>
