<svg xmlns="http://www.w3.org/2000/svg" viewBox="0 0 512 512" role="img" aria-labelledby="title desc">
  <title id="title">Piczzle app icon</title>
  <desc id="desc">A clear four-color jigsaw puzzle piece for Piczzle.</desc>
  <defs>
    <clipPath id="pieceClip">
      <path d="M159 104h92c0 32 21 52 48 52s48-20 48-52h24c30 0 54 24 54 54v80c32 0 52 21 52 48s-20 48-52 48v24c0 30-24 54-54 54h-80c0-32-21-52-48-52s-48 20-48 52h-36c-30 0-54-24-54-54v-80c-32 0-52-21-52-48s20-48 52-48v-80c0-30 24-54 54-54Z"/>
    </clipPath>
    <filter id="shadow" x="-20%" y="-20%" width="140%" height="140%">
      <feDropShadow dx="0" dy="22" stdDeviation="22" flood-color="#050816" flood-opacity=".45"/>
    </filter>
  </defs>
  <rect width="512" height="512" rx="112" fill="#0b1020"/>
  <g filter="url(#shadow)">
    <g clip-path="url(#pieceClip)">
      <rect x="96" y="88" width="180" height="180" fill="#32e6a3"/>
      <rect x="276" y="88" width="164" height="180" fill="#27cfff"/>
      <rect x="96" y="268" width="180" height="164" fill="#ffd45a"/>
      <rect x="276" y="268" width="164" height="164" fill="#7d5cff"/>
      <path d="M105 390 425 144v112L164 432h-5c-23 0-43-15-54-42Z" fill="#fff" opacity=".20"/>
    </g>
    <path d="M159 104h92c0 32 21 52 48 52s48-20 48-52h24c30 0 54 24 54 54v80c32 0 52 21 52 48s-20 48-52 48v24c0 30-24 54-54 54h-80c0-32-21-52-48-52s-48 20-48 52h-36c-30 0-54-24-54-54v-80c-32 0-52-21-52-48s20-48 52-48v-80c0-30 24-54 54-54Z" fill="none" stroke="#172033" stroke-opacity=".96" stroke-width="20" stroke-linejoin="round"/>
    <path d="M159 104h92c0 32 21 52 48 52s48-20 48-52h24c30 0 54 24 54 54v80c32 0 52 21 52 48s-20 48-52 48v24c0 30-24 54-54 54h-80c0-32-21-52-48-52s-48 20-48 52h-36c-30 0-54-24-54-54v-80c-32 0-52-21-52-48s20-48 52-48v-80c0-30 24-54 54-54Z" fill="none" stroke="#07101d" stroke-opacity=".44" stroke-width="7" stroke-linejoin="round"/>
  </g>
</svg>
